<?xml version="1.0" encoding="UTF-8" standalone="no"?>
<!DOCTYPE svg PUBLIC "-//W3C//DTD SVG 1.1//EN" "http://www.w3.org/Graphics/SVG/1.1/DTD/svg11.dtd">
<svg width="100%" height="100%" viewBox="0 0 114 107" version="1.1" xmlns="http://www.w3.org/2000/svg" xmlns:xlink="http://www.w3.org/1999/xlink" xml:space="preserve" xmlns:serif="http://www.serif.com/" style="fill-rule:evenodd;clip-rule:evenodd;stroke-linecap:round;stroke-linejoin:round;stroke-miterlimit:1.5;">
    <g transform="matrix(1,0,0,1,-109.22,-2109.14)">
        <g transform="matrix(1,0,0,1,-2455.94,0.493771)">
            <g transform="matrix(1,0,0,1,2455.94,-0.493771)">
                <g id="Layer0_0_FILL" transform="matrix(1.61304,0,0,1.61304,-818.342,1934.98)">
                    <g transform="matrix(1,0,0,1,544.213,76.9282)">
                        <path d="M68,92L68,96L72,96L72,92L68,92M96,36L92,36L92,40L96,40L96,36M60,80L60,76L56,76L56,80L60,80M68,56L68,52L64,52L64,56L68,56M64,72L68,72L68,68L64,68L64,72M44,48L44,44L40,44L40,48L44,48M88,88L88,80L80,80L80,88L88,88Z" style="fill:rgb(180,96,65);fill-rule:nonzero;"/>
                    </g>
                    <g transform="matrix(1,0,0,1,544.213,76.9282)">
                        <path d="M92,36L96,36L96,32L32,32L32,96L68,96L68,92L72,92L72,96L96,96L96,40L92,40L92,36M88,48L88,44L92,44L92,48L88,48M88,80L88,88L80,88L80,80L88,80M60,40L64,40L64,44L60,44L60,40M48,48L56,48L56,56L48,56L48,48M44,44L44,48L40,48L40,44L44,44M36,84L36,80L40,80L40,84L36,84M68,72L64,72L64,68L68,68L68,72M68,52L68,56L64,56L64,52L68,52M44,64L44,60L48,60L48,64L44,64M60,76L60,80L56,80L56,76L60,76M76,76L76,80L72,80L72,76L76,76Z" style="fill:rgb(187,100,68);fill-rule:nonzero;"/>
                    </g>
                    <g transform="matrix(1,0,0,1,544.285,76.9282)">
                        <path d="M92,36L96,36L96,32L32,32L32,96L68,96L68,92L72,92L72,96L96,96L96,40L92,40L92,36M88,48L88,44L92,44L92,48L88,48M88,80L88,88L80,88L80,80L88,80M60,40L64,40L64,44L60,44L60,40M48,48L56,48L56,56L48,56L48,48M44,44L44,48L40,48L40,44L44,44M36,84L36,80L40,80L40,84L36,84M68,72L64,72L64,68L68,68L68,72M68,52L68,56L64,56L64,52L68,52M44,64L44,60L48,60L48,64L44,64M60,76L60,80L56,80L56,76L60,76M76,76L76,80L72,80L72,76L76,76Z" style="fill:rgb(187,100,68);fill-rule:nonzero;"/>
                    </g>
                    <g transform="matrix(1,0,0,1,544.213,76.9282)">
                        <path d="M76,80L76,76L72,76L72,80L76,80M44,60L44,64L48,64L48,60L44,60M36,80L36,84L40,84L40,80L36,80M56,48L48,48L48,56L56,56L56,48M64,40L60,40L60,44L64,44L64,40M88,44L88,48L92,48L92,44L88,44Z" style="fill:rgb(194,103,70);fill-rule:nonzero;"/>
                    </g>
                </g>
                <g transform="matrix(1.01037,0,0,1.01317,-1.65419,-28.6189)">
                    <rect x="111.054" y="2111" width="103.185" height="102.924" style="fill:none;stroke:rgb(236,237,234);stroke-width:2.06px;"/>
                </g>
                <g id="Layer0_35_MEMBER_0_FILL" transform="matrix(3.39593,0,0,2.39712,-400.56,1483.08)">
                    <clipPath id="_clip1">
                        <rect x="150.839" y="261.72" width="30.313" height="43.165"/>
                    </clipPath>
                    <g clip-path="url(#_clip1)">
                        <path d="M172.15,276.8C173.45,277.6 175.017,278 176.85,278C178.75,278 180.35,277.6 181.65,276.8C182.917,276.033 183.55,275.1 183.55,274C183.55,272.9 182.917,271.95 181.65,271.15C180.35,270.383 178.75,270 176.85,270C175.017,270 173.45,270.383 172.15,271.15C170.85,271.95 170.2,272.9 170.2,274C170.2,275.1 170.85,276.033 172.15,276.8Z" style="fill-opacity:0.101961;fill-rule:nonzero;"/>
                    </g>
                </g>
                <g transform="matrix(1,0,0,1,-894.842,1603.92)">
                    <g>
                        <g id="Layer0_94_FILL">
                            <g transform="matrix(1,0,0,1,544.213,76.9282)">
                                <path d="M546,431C545.7,431 545.4,431.067 545.1,431.2L541.1,433.2C540.633,433.433 540.317,433.817 540.15,434.35C539.95,434.817 539.783,435.3 539.65,435.8L539.65,435.85L539.4,436.6L536.1,438.25C535.6,438.483 535.267,438.867 535.1,439.4C534.867,440.133 534.633,440.867 534.4,441.6C534.267,441.867 534.167,442.15 534.1,442.45L533.8,443.35C533.733,443.483 533.7,443.617 533.7,443.75L531.4,450.6L528.1,452.2C527.633,452.433 527.317,452.817 527.15,453.35C526.95,453.817 526.783,454.283 526.65,454.75L525.1,459.35C524.967,459.717 524.95,460.083 525.05,460.45C525.15,460.817 525.333,461.15 525.6,461.45L529.6,465.45C529.967,465.817 530.433,466 531,466L537,466C537.567,466 538.05,465.817 538.45,465.45L541.85,462L553,462C553.567,462 554.05,461.817 554.45,461.45L562.45,453.45C562.683,453.15 562.85,452.817 562.95,452.45C563.05,452.083 563.033,451.733 562.9,451.4L559.9,442.45C559.867,442.317 559.833,442.183 559.8,442.05C559.767,441.983 559.75,441.917 559.75,441.85C559.45,441.017 559.167,440.2 558.9,439.4C558.733,438.867 558.4,438.483 557.9,438.25L554.65,436.6L554.35,435.8C554.217,435.3 554.067,434.817 553.9,434.35C553.7,433.817 553.367,433.433 552.9,433.2L548.9,431.2C548.6,431.067 548.3,431 548,431L546,431M535.7,444L535.65,444L536.05,442.9C536.083,442.767 536.133,442.633 536.2,442.5C536.467,441.667 536.733,440.833 537,440L541.05,438L541.35,437L541.55,436.4C541.683,435.933 541.833,435.467 542,435L546,433L548,433L552,435C552.167,435.467 552.317,435.933 552.45,436.4L552.65,437L553,438L557,440C557.267,440.833 557.55,441.667 557.85,442.5C557.883,442.633 557.917,442.767 557.95,442.9L558.35,444L561,452L553,460L541,460L537,464L531,464L527,460L528.35,456L528.55,455.4C528.683,454.933 528.833,454.467 529,454L533,452L535.7,444Z" style="fill:rgb(138,71,48);fill-rule:nonzero;"/>
                            </g>
                            <g transform="matrix(1,0,0,1,544.213,76.9282)">
                                <path d="M533,458L531,464L537,464L535,458L533,458M553,460L549,448L545,448L541,460L553,460M546,439L544,445L550,445L548,439L546,439Z" style="fill:rgb(203,107,73);fill-rule:nonzero;"/>
                            </g>
                            <g transform="matrix(1,0,0,1,544.213,76.9282)">
                                <path d="M527,460L531,464L533,458L528.35,456L527,460M539,454C539.167,454.467 539.317,454.933 539.45,455.4L539.65,456L535,458L537,464L541,460L545,448L535.7,444L533,452L535,452L539,454M549,448L553,460L561,452L558.35,444L549,448M553,438L552.65,437L548,439L550,445L554,441L553,438M541.35,437L541.05,438L540,441L544,445L546,439L541.35,437Z" style="fill:rgb(187,98,67);fill-rule:nonzero;"/>
                            </g>
                            <g transform="matrix(1,0,0,1,544.213,76.9282)">
                                <path d="M539.45,455.4C539.317,454.933 539.167,454.467 539,454L535,452L533,452L529,454C528.833,454.467 528.683,454.933 528.55,455.4L528.35,456L533,458L535,458L539.65,456L539.45,455.4M541.55,436.4L541.35,437L546,439L548,439L552.65,437L552.45,436.4C552.317,435.933 552.167,435.467 552,435L548,433L546,433L542,435C541.833,435.467 541.683,435.933 541.55,436.4M535.65,444L535.7,444L545,448L549,448L558.35,444L557.95,442.9C557.917,442.767 557.883,442.633 557.85,442.5C557.55,441.667 557.267,440.833 557,440L553,438L554,441L550,445L544,445L540,441L541.05,438L537,440C536.733,440.833 536.467,441.667 536.2,442.5C536.133,442.633 536.083,442.767 536.05,442.9L535.65,444Z" style="fill:rgb(217,115,78);fill-rule:nonzero;"/>
                            </g>
                        </g>
                    </g>
                </g>
                <g transform="matrix(0.864307,0,0,0.864307,-339.83,1580.7)">
                    <g id="Layer0_147_MEMBER_0_FILL">
                        <path d="M552.6,640.6C552.2,640.967 552,641.433 552,642L552,646C552,646.567 552.2,647.05 552.6,647.45C552.967,647.817 553.433,648 554,648L558,648C558.567,648 559.05,647.817 559.45,647.45C559.817,647.05 560,646.567 560,646L560,642C560,641.433 559.817,640.967 559.45,640.6C559.05,640.2 558.567,640 558,640L554,640C553.433,640 552.967,640.2 552.6,640.6M554,642L558,642L558,646L554,646L554,642Z" style="fill:rgb(104,149,69);fill-rule:nonzero;"/>
                        <rect x="554" y="642" width="4" height="4" style="fill:rgb(139,198,93);fill-rule:nonzero;"/>
                    </g>
                    <g id="Layer0_147_MEMBER_1_FILL">
                        <path d="M534.4,633.6C534.033,633.2 533.567,633 533,633L529,633C528.433,633 527.95,633.2 527.55,633.6C527.183,633.967 527,634.433 527,635L527,639C527,639.567 527.183,640.05 527.55,640.45L533.55,646.45C533.95,646.817 534.433,647 535,647L539,647C539.567,647 540.033,646.817 540.4,646.45C540.8,646.05 541,645.567 541,645L541,641C541,640.433 540.8,639.967 540.4,639.6L534.4,633.6M529,635L533,635L539,641L539,645L535,645L529,639L529,635Z" style="fill:rgb(104,149,69);fill-rule:nonzero;"/>
                        <path d="M533,639L529,639L535,645L539,645L533,639Z" style="fill:rgb(117,168,78);fill-rule:nonzero;"/>
                        <rect x="529" y="635" width="4" height="4" style="fill:rgb(139,198,93);fill-rule:nonzero;"/>
                        <path d="M533,635L533,639L539,645L539,641L533,635Z" style="fill:rgb(126,180,84);fill-rule:nonzero;"/>
                    </g>
                    <path id="Layer0_147_MEMBER_2_FILL" d="M546,660.4C550.167,660.4 553.7,659.65 556.6,658.15C559.533,656.683 561,654.933 561,652.9C561,650.867 559.533,649.1 556.6,647.6C553.7,646.133 550.167,645.4 546,645.4C541.8,645.4 538.25,646.133 535.35,647.6C532.45,649.1 531,650.867 531,652.9C531,654.933 532.45,656.683 535.35,658.15C538.25,659.65 541.8,660.4 546,660.4Z" style="fill-opacity:0.101961;fill-rule:nonzero;"/>
                    <g id="Layer0_147_MEMBER_3_FILL">
                        <path d="M545,622.9C544.433,622.9 543.967,623.1 543.6,623.5L539.6,627.5C539.2,627.867 539,628.333 539,628.9L539,640.05L535.6,643.5C535.2,643.867 535,644.333 535,644.9L535,648.9C535,649.467 535.2,649.95 535.6,650.35L539.6,654.35C539.967,654.717 540.433,654.9 541,654.9L549,654.9C549.367,654.9 549.717,654.8 550.05,654.6C550.383,654.4 550.633,654.133 550.8,653.8L554.8,645.8C554.933,645.5 555,645.2 555,644.9L555,636.9C555,636.333 554.817,635.867 554.45,635.5C554.05,635.1 553.567,634.9 553,634.9L551,634.9L551,624.9C551,624.333 550.817,623.867 550.45,623.5C550.05,623.1 549.567,622.9 549,622.9L545,622.9M541,640.9L541,632.9L541,628.9L545,624.9L549,624.9L549,636.9L553,636.9L553,644.9L549,652.9L545,652.9L541,652.9L537,648.9L537,644.9L541,640.9Z" style="fill:rgb(104,149,69);fill-rule:nonzero;"/>
                        <path d="M537,644.9L537,648.9L541,644.9L541,640.9L537,644.9M553,640.9L553,636.9L549,636.9L549,640.9L553,640.9M541,632.9L545,628.9L549,628.9L549,624.9L545,624.9L541,628.9L541,632.9Z" style="fill:rgb(139,198,93);fill-rule:nonzero;"/>
                        <path d="M553,640.9L549,640.9L549,636.9L549,628.9L545,628.9L545,652.9L549,652.9L553,644.9L553,640.9Z" style="fill:rgb(117,168,78);fill-rule:nonzero;"/>
                        <path d="M545,628.9L541,632.9L541,644.9L537,648.9L541,652.9L545,652.9L545,628.9Z" style="fill:rgb(126,180,84);fill-rule:nonzero;"/>
                    </g>
                    <g id="Layer0_147_MEMBER_4_FILL">
                        <path d="M563.4,644.5C563,644.1 562.517,643.9 561.95,643.9L557.95,643.9C557.383,643.9 556.917,644.1 556.55,644.5L550.55,650.5C550.15,650.867 549.95,651.333 549.95,651.9L549.95,655.9C549.95,656.467 550.15,656.95 550.55,657.35C550.917,657.717 551.383,657.9 551.95,657.9L555.95,657.9C556.517,657.9 557,657.717 557.4,657.35L563.4,651.35C563.767,650.95 563.95,650.467 563.95,649.9L563.95,645.9C563.95,645.333 563.767,644.867 563.4,644.5M557.95,645.9L561.95,645.9L561.95,649.9L555.95,655.9L551.95,655.9L551.95,651.9L557.95,645.9Z" style="fill:rgb(104,149,69);fill-rule:nonzero;"/>
                        <path d="M557.95,649.9L557.95,645.9L551.95,651.9L551.95,655.9L557.95,649.9Z" style="fill:rgb(126,180,84);fill-rule:nonzero;"/>
                        <rect x="557.95" y="645.9" width="4" height="4" style="fill:rgb(139,198,93);fill-rule:nonzero;"/>
                        <path d="M561.95,649.9L557.95,649.9L551.95,655.9L555.95,655.9L561.95,649.9Z" style="fill:rgb(117,168,78);fill-rule:nonzero;"/>
                    </g>
                    <g id="Layer0_147_MEMBER_5_FILL">
                        <path d="M539.45,650.6C539.05,650.2 538.567,650 538,650L534,650C533.433,650 532.967,650.2 532.6,650.6C532.2,650.967 532,651.433 532,652L532,656C532,656.567 532.2,657.05 532.6,657.45C532.967,657.817 533.433,658 534,658L538,658C538.567,658 539.05,657.817 539.45,657.45C539.817,657.05 540,656.567 540,656L540,652C540,651.433 539.817,650.967 539.45,650.6M538,652L538,656L534,656L534,652L538,652Z" style="fill:rgb(104,149,69);fill-rule:nonzero;"/>
                        <rect x="534" y="652" width="4" height="4" style="fill:rgb(139,198,93);fill-rule:nonzero;"/>
                    </g>
                </g>
                <g transform="matrix(1,0,0,1,14.7346,0.223992)">
                    <g>
                        <clipPath id="_clip2">
                            <rect x="111.679" y="2110.46" width="102.941" height="103.472"/>
                        </clipPath>
                        <g clip-path="url(#_clip2)">
                            <g transform="matrix(0.288525,-0.069378,0.160808,0.668758,-257.93,734.443)">
                                <rect x="118.419" y="2178.09" width="8.784" height="16.625" style="fill:rgb(180,96,65);"/>
                            </g>
                            <g transform="matrix(0.284538,-0.0842497,0.195278,0.659517,-337.354,757.746)">
                                <rect x="118.419" y="2178.09" width="8.784" height="16.625" style="fill:rgb(180,96,65);"/>
                            </g>
                            <g transform="matrix(0.280543,-0.0967231,0.22419,0.650258,-404.529,781.209)">
                                <rect x="118.419" y="2178.09" width="8.784" height="16.625" style="fill:rgb(180,96,65);"/>
                            </g>
                            <g transform="matrix(0.27553,-0.110197,0.25542,0.638637,-476.81,809.829)">
                                <rect x="118.419" y="2178.09" width="8.784" height="16.625" style="fill:rgb(180,96,65);"/>
                            </g>
                            <g transform="matrix(0.27553,-0.110197,0.25542,0.638637,-481.265,811.274)">
                                <rect x="118.419" y="2178.09" width="8.784" height="16.625" style="fill:rgb(180,96,65);"/>
                            </g>
                        </g>
                    </g>
                    <g transform="matrix(1,0,0,1,-2.98528,-14.1476)">
                        <clipPath id="_clip3">
                            <rect x="114.546" y="2124.61" width="103.06" height="103.472"/>
                        </clipPath>
                        <g clip-path="url(#_clip3)">
                            <g transform="matrix(0.288525,-0.069378,0.160808,0.668758,-257.93,734.443)">
                                <rect x="118.419" y="2178.09" width="8.784" height="16.625" style="fill:rgb(180,96,65);"/>
                            </g>
                            <g transform="matrix(0.284538,-0.0842497,0.195278,0.659517,-337.354,757.746)">
                                <rect x="118.419" y="2178.09" width="8.784" height="16.625" style="fill:rgb(180,96,65);"/>
                            </g>
                            <g transform="matrix(0.280543,-0.0967231,0.22419,0.650258,-404.777,781.074)">
                                <rect x="118.419" y="2178.09" width="8.784" height="16.625" style="fill:rgb(180,96,65);"/>
                            </g>
                            <g transform="matrix(0.279431,-0.0998922,0.231535,0.647679,-424.858,788.931)">
                                <rect x="118.419" y="2178.09" width="8.784" height="16.625" style="fill:rgb(180,96,65);"/>
                            </g>
                        </g>
                    </g>
                    <g transform="matrix(1,0,0,1,-16.4972,-9.56013)">
                        <clipPath id="_clip4">
                            <rect x="114.546" y="2124.61" width="103.06" height="103.472"/>
                        </clipPath>
                        <g clip-path="url(#_clip4)">
                            <g transform="matrix(0.288525,-0.069378,0.160808,0.668758,-257.93,734.443)">
                                <rect x="118.419" y="2178.09" width="8.784" height="16.625" style="fill:rgb(180,96,65);"/>
                            </g>
                            <g transform="matrix(0.284538,-0.0842497,0.195278,0.659517,-337.354,757.746)">
                                <rect x="118.419" y="2178.09" width="8.784" height="16.625" style="fill:rgb(180,96,65);"/>
                            </g>
                            <g transform="matrix(0.280543,-0.0967231,0.22419,0.650258,-404.777,781.074)">
                                <rect x="118.419" y="2178.09" width="8.784" height="16.625" style="fill:rgb(180,96,65);"/>
                            </g>
                            <g transform="matrix(0.279431,-0.0998922,0.231535,0.647679,-424.858,788.931)">
                                <rect x="118.419" y="2178.09" width="8.784" height="16.625" style="fill:rgb(180,96,65);"/>
                            </g>
                        </g>
                    </g>
                    <g transform="matrix(1.32327,-0.252929,0.252929,1.32327,-1694.28,1904.04)">
                        <g>
                            <g id="Layer0_46_FILL">
                                <path d="M1312.35,462L1312.35,460L1307.2,460L1307.2,462L1312.35,462M1298,430C1297.43,430 1296.97,430.2 1296.6,430.6L1292.6,434.6C1292.2,434.967 1292,435.433 1292,436L1292,448L1294,448L1294,436L1298,432L1318,432L1318,436L1320,436L1320,434L1320,432C1320,431.433 1319.82,430.967 1319.45,430.6C1319.05,430.2 1318.57,430 1318,430L1298,430Z" style="fill:rgb(104,109,109);fill-rule:nonzero;"/>
                                <path d="M1301.35,466C1299.75,465.967 1298.38,465.383 1297.25,464.25C1296.48,463.45 1295.97,462.55 1295.7,461.55C1295.57,461.083 1295.5,460.617 1295.5,460.15L1295.5,457.9C1295.5,457.867 1295.5,457.833 1295.5,457.8C1295.53,457.367 1295.6,456.95 1295.7,456.55L1292.6,453.45C1292.21,453.063 1292.01,452.662 1292,452.25L1292,466L1301.35,466M1305.75,464.2C1305.72,464.2 1305.7,464.217 1305.7,464.25C1304.57,465.383 1303.22,465.967 1301.65,466L1317.85,466C1316.25,465.967 1314.88,465.383 1313.75,464.25C1313.08,463.583 1312.62,462.833 1312.35,462L1307.2,462C1306.9,462.8 1306.42,463.533 1305.75,464.2M1332,460.65C1331.99,460.935 1331.94,461.219 1331.85,461.5C1331.85,461.533 1331.85,461.583 1331.85,461.65C1331.55,462.617 1331.02,463.467 1330.25,464.2C1330.22,464.2 1330.2,464.217 1330.2,464.25C1329.07,465.383 1327.72,465.967 1326.15,466L1332,466L1332,460.65M1325.85,466C1324.38,465.967 1323.1,465.45 1322,464.45C1320.9,465.45 1319.62,465.967 1318.15,466L1325.85,466Z" style="fill-opacity:0.101961;fill-rule:nonzero;"/>
                                <path d="M1305.5,460L1305.5,460.3C1305.5,460.533 1305.47,460.783 1305.4,461.05C1305.2,461.717 1304.83,462.3 1304.3,462.8C1303.53,463.6 1302.6,464 1301.5,464C1300.4,464 1299.45,463.6 1298.65,462.8C1298.15,462.3 1297.82,461.717 1297.65,461.05C1297.55,460.75 1297.5,460.45 1297.5,460.15L1297.5,459.9L1297.5,457.9C1297.53,457.4 1297.63,456.95 1297.8,456.55L1295.7,456.55C1295.6,456.95 1295.53,457.367 1295.5,457.8L1295.5,460.15C1295.5,460.617 1295.57,461.083 1295.7,461.55C1295.97,462.55 1296.48,463.45 1297.25,464.25C1298.38,465.383 1299.75,465.967 1301.35,466L1301.65,466C1303.22,465.967 1304.57,465.383 1305.7,464.25C1305.7,464.217 1305.72,464.2 1305.75,464.2C1306.42,463.533 1306.9,462.8 1307.2,462L1307.2,460L1305.5,460M1323.15,462.8C1322.65,462.3 1322.32,461.717 1322.15,461.05C1322.08,460.783 1322.03,460.533 1322,460.3C1322,460.533 1321.97,460.783 1321.9,461.05C1321.7,461.717 1321.33,462.3 1320.8,462.8C1320.03,463.6 1319.1,464 1318,464C1316.9,464 1315.95,463.6 1315.15,462.8C1314.65,462.3 1314.32,461.717 1314.15,461.05C1314.05,460.75 1314,460.45 1314,460.15L1314,460L1312.35,460L1312.35,462C1312.62,462.833 1313.08,463.583 1313.75,464.25C1314.88,465.383 1316.25,465.967 1317.85,466L1318.15,466C1319.62,465.967 1320.9,465.45 1322,464.45C1323.1,465.45 1324.38,465.967 1325.85,466L1326.15,466C1327.72,465.967 1329.07,465.383 1330.2,464.25C1330.2,464.217 1330.22,464.2 1330.25,464.2C1331.02,463.467 1331.55,462.617 1331.85,461.65C1331.85,461.583 1331.85,461.533 1331.85,461.5C1331.94,461.219 1331.99,460.935 1332,460.65L1332,459.9L1330,459.9L1330,460.15C1330,460.45 1329.97,460.75 1329.9,461.05C1329.7,461.717 1329.33,462.3 1328.8,462.8C1328.03,463.6 1327.1,464 1326,464C1324.9,464 1323.95,463.6 1323.15,462.8Z" style="fill:rgb(80,84,84);fill-rule:nonzero;"/>
                                <path d="M1297.8,456.55C1297.87,456.383 1297.93,456.233 1298,456.1L1298,456L1294,452L1294,448L1292,448L1292,452.25C1292.01,452.662 1292.21,453.063 1292.6,453.45L1295.7,456.55L1297.8,456.55M1322,434L1320,434L1320,436L1322,436L1330,440L1330,459.9L1332,459.9L1332,440C1332,439.633 1331.9,439.283 1331.7,438.95C1331.5,438.617 1331.23,438.367 1330.9,438.2L1322.9,434.2C1322.6,434.067 1322.3,434 1322,434Z" style="fill:rgb(156,82,55);fill-rule:nonzero;"/>
                                <path d="M1298.05,456L1298,456L1298,456.1C1298,456.066 1298.02,456.032 1298.05,456M1322.55,456L1321.5,456C1321.8,456.567 1321.97,457.2 1322,457.9C1322.03,457.2 1322.22,456.567 1322.55,456M1330,456L1329.5,456C1329.8,456.567 1329.97,457.2 1330,457.9L1330,456M1318,444L1298,444L1294,448L1314,448L1314,456L1305,456C1305.3,456.567 1305.47,457.2 1305.5,457.9L1305.5,460L1314,460L1314,459.9L1314,457.9C1314.03,457.2 1314.22,456.567 1314.55,456C1314.68,455.7 1314.88,455.417 1315.15,455.15C1315.95,454.383 1316.9,454 1318,454L1318,448L1318,444M1328,441.25L1324,439.25L1324,446.75L1328,448.75L1328,441.25Z" style="fill:rgb(153,163,163);fill-rule:nonzero;"/>
                                <path d="M1299.45,456.55C1299.15,456.717 1298.88,456.917 1298.65,457.15C1298.38,457.417 1298.18,457.7 1298.05,458C1298.02,458.033 1298,458.067 1298,458.1C1297.7,458.633 1297.53,459.233 1297.5,459.9L1297.5,460.15C1297.5,460.45 1297.55,460.75 1297.65,461.05C1297.82,461.717 1298.15,462.3 1298.65,462.8C1299.45,463.6 1300.4,464 1301.5,464C1302.6,464 1303.53,463.6 1304.3,462.8C1304.83,462.3 1305.2,461.717 1305.4,461.05C1305.47,460.783 1305.5,460.533 1305.5,460.3L1305.5,460L1305.5,459.9C1305.47,459.2 1305.28,458.567 1304.95,458C1304.78,457.7 1304.57,457.417 1304.3,457.15C1303.57,456.417 1302.67,456.033 1301.6,456L1301.4,456C1300.67,456.033 1300.02,456.217 1299.45,456.55M1301.6,458C1302.13,458.033 1302.57,458.233 1302.9,458.6C1303.17,458.867 1303.35,459.167 1303.45,459.5C1303.48,459.667 1303.5,459.833 1303.5,460C1303.5,460.567 1303.3,461.033 1302.9,461.4C1302.53,461.8 1302.07,462 1301.5,462C1300.97,462 1300.5,461.8 1300.1,461.4C1299.7,461.033 1299.5,460.567 1299.5,460C1299.5,459.833 1299.53,459.667 1299.6,459.5C1299.67,459.167 1299.83,458.867 1300.1,458.6C1300.47,458.233 1300.9,458.033 1301.4,458L1301.6,458M1320.8,457.15C1320.07,456.417 1319.17,456.033 1318.1,456L1317.9,456C1316.83,456.033 1315.92,456.417 1315.15,457.15C1314.88,457.417 1314.68,457.7 1314.55,458C1314.22,458.567 1314.03,459.2 1314,459.9L1314,460.15C1314,460.45 1314.05,460.75 1314.15,461.05C1314.32,461.717 1314.65,462.3 1315.15,462.8C1315.95,463.6 1316.9,464 1318,464C1319.1,464 1320.03,463.6 1320.8,462.8C1321.33,462.3 1321.7,461.717 1321.9,461.05C1321.97,460.783 1322,460.533 1322,460.3C1322.03,460.533 1322.08,460.783 1322.15,461.05C1322.32,461.717 1322.65,462.3 1323.15,462.8C1323.95,463.6 1324.9,464 1326,464C1327.1,464 1328.03,463.6 1328.8,462.8C1329.33,462.3 1329.7,461.717 1329.9,461.05C1329.97,460.75 1330,460.45 1330,460.15L1330,459.9C1329.97,459.2 1329.78,458.567 1329.45,458C1329.28,457.7 1329.07,457.417 1328.8,457.15C1328.07,456.417 1327.17,456.033 1326.1,456L1325.9,456C1324.83,456.033 1323.92,456.417 1323.15,457.15C1322.88,457.417 1322.68,457.7 1322.55,458C1322.22,458.567 1322.03,459.2 1322,459.9C1321.97,459.2 1321.78,458.567 1321.45,458C1321.28,457.7 1321.07,457.417 1320.8,457.15M1324.6,458.6C1324.97,458.233 1325.4,458.033 1325.9,458L1326.1,458C1326.63,458.033 1327.07,458.233 1327.4,458.6C1327.67,458.867 1327.85,459.167 1327.95,459.5C1327.98,459.667 1328,459.833 1328,460C1328,460.567 1327.8,461.033 1327.4,461.4C1327.03,461.8 1326.57,462 1326,462C1325.47,462 1325,461.8 1324.6,461.4C1324.2,461.033 1324,460.567 1324,460C1324,459.833 1324.03,459.667 1324.1,459.5C1324.17,459.167 1324.33,458.867 1324.6,458.6M1319.4,458.6C1319.67,458.867 1319.85,459.167 1319.95,459.5C1319.98,459.667 1320,459.833 1320,460C1320,460.567 1319.8,461.033 1319.4,461.4C1319.03,461.8 1318.57,462 1318,462C1317.47,462 1317,461.8 1316.6,461.4C1316.2,461.033 1316,460.567 1316,460C1316,459.833 1316.03,459.667 1316.1,459.5C1316.17,459.167 1316.33,458.867 1316.6,458.6C1316.97,458.233 1317.4,458.033 1317.9,458L1318.1,458C1318.63,458.033 1319.07,458.233 1319.4,458.6Z" style="fill:rgb(117,123,123);fill-rule:nonzero;"/>
                                <path d="M1302.9,458.6C1302.57,458.233 1302.13,458.033 1301.6,458L1301.4,458C1300.9,458.033 1300.47,458.233 1300.1,458.6C1299.83,458.867 1299.67,459.167 1299.6,459.5C1299.53,459.667 1299.5,459.833 1299.5,460C1299.5,460.567 1299.7,461.033 1300.1,461.4C1300.5,461.8 1300.97,462 1301.5,462C1302.07,462 1302.53,461.8 1302.9,461.4C1303.3,461.033 1303.5,460.567 1303.5,460C1303.5,459.833 1303.48,459.667 1303.45,459.5C1303.35,459.167 1303.17,458.867 1302.9,458.6M1319.95,459.5C1319.85,459.167 1319.67,458.867 1319.4,458.6C1319.07,458.233 1318.63,458.033 1318.1,458L1317.9,458C1317.4,458.033 1316.97,458.233 1316.6,458.6C1316.33,458.867 1316.17,459.167 1316.1,459.5C1316.03,459.667 1316,459.833 1316,460C1316,460.567 1316.2,461.033 1316.6,461.4C1317,461.8 1317.47,462 1318,462C1318.57,462 1319.03,461.8 1319.4,461.4C1319.8,461.033 1320,460.567 1320,460C1320,459.833 1319.98,459.667 1319.95,459.5M1325.9,458C1325.4,458.033 1324.97,458.233 1324.6,458.6C1324.33,458.867 1324.17,459.167 1324.1,459.5C1324.03,459.667 1324,459.833 1324,460C1324,460.567 1324.2,461.033 1324.6,461.4C1325,461.8 1325.47,462 1326,462C1326.57,462 1327.03,461.8 1327.4,461.4C1327.8,461.033 1328,460.567 1328,460C1328,459.833 1327.98,459.667 1327.95,459.5C1327.85,459.167 1327.67,458.867 1327.4,458.6C1327.07,458.233 1326.63,458.033 1326.1,458L1325.9,458Z" style="fill:rgb(186,198,198);fill-rule:nonzero;"/>
                                <path d="M1298.65,457.15C1298.88,456.917 1299.15,456.717 1299.45,456.55C1300.02,456.217 1300.67,456.033 1301.4,456L1301.6,456C1302.67,456.033 1303.57,456.417 1304.3,457.15C1304.57,457.417 1304.78,457.7 1304.95,458C1305.28,458.567 1305.47,459.2 1305.5,459.9L1305.5,457.9C1305.47,457.2 1305.3,456.567 1305,456C1304.8,455.7 1304.57,455.417 1304.3,455.15C1303.53,454.383 1302.6,454 1301.5,454C1300.4,454 1299.45,454.383 1298.65,455.15C1298.38,455.417 1298.18,455.7 1298.05,456C1298.02,456.032 1298,456.066 1298,456.1C1297.93,456.233 1297.87,456.383 1297.8,456.55C1297.63,456.95 1297.53,457.4 1297.5,457.9L1297.5,459.9C1297.53,459.233 1297.7,458.633 1298,458.1C1298,458.067 1298.02,458.033 1298.05,458C1298.18,457.7 1298.38,457.417 1298.65,457.15M1329.5,456C1329.3,455.7 1329.07,455.417 1328.8,455.15C1328.03,454.383 1327.1,454 1326,454C1324.9,454 1323.95,454.383 1323.15,455.15C1322.88,455.417 1322.68,455.7 1322.55,456C1322.22,456.567 1322.03,457.2 1322,457.9C1321.97,457.2 1321.8,456.567 1321.5,456C1321.3,455.7 1321.07,455.417 1320.8,455.15C1320.03,454.383 1319.1,454 1318,454C1316.9,454 1315.95,454.383 1315.15,455.15C1314.88,455.417 1314.68,455.7 1314.55,456C1314.22,456.567 1314.03,457.2 1314,457.9L1314,459.9C1314.03,459.2 1314.22,458.567 1314.55,458C1314.68,457.7 1314.88,457.417 1315.15,457.15C1315.92,456.417 1316.83,456.033 1317.9,456L1318.1,456C1319.17,456.033 1320.07,456.417 1320.8,457.15C1321.07,457.417 1321.28,457.7 1321.45,458C1321.78,458.567 1321.97,459.2 1322,459.9C1322.03,459.2 1322.22,458.567 1322.55,458C1322.68,457.7 1322.88,457.417 1323.15,457.15C1323.92,456.417 1324.83,456.033 1325.9,456L1326.1,456C1327.17,456.033 1328.07,456.417 1328.8,457.15C1329.07,457.417 1329.28,457.7 1329.45,458C1329.78,458.567 1329.97,459.2 1330,459.9L1330,457.9C1329.97,457.2 1329.8,456.567 1329.5,456Z" style="fill:rgb(141,149,149);fill-rule:nonzero;"/>
                                <path d="M1314,456L1314,448L1294,448L1294,452L1298,456L1298.05,456C1298.18,455.7 1298.38,455.417 1298.65,455.15C1299.45,454.383 1300.4,454 1301.5,454C1302.6,454 1303.53,454.383 1304.3,455.15C1304.57,455.417 1304.8,455.7 1305,456L1314,456M1330,456L1330,452L1322,448L1318,448L1318,454C1319.1,454 1320.03,454.383 1320.8,455.15C1321.07,455.417 1321.3,455.7 1321.5,456L1322.55,456C1322.68,455.7 1322.88,455.417 1323.15,455.15C1323.95,454.383 1324.9,454 1326,454C1327.1,454 1328.03,454.383 1328.8,455.15C1329.07,455.417 1329.3,455.7 1329.5,456L1330,456Z" style="fill:rgb(194,103,69);fill-rule:nonzero;"/>
                                <path d="M1330,440L1322,436L1322,448L1330,452L1330,440M1324,439.25L1328,441.25L1328,448.75L1324,446.75L1324,439.25Z" style="fill:rgb(238,127,86);fill-rule:nonzero;"/>
                                <path d="M1318,436L1318,448L1322,448L1322,436L1320,436L1318,436Z" style="fill:rgb(226,121,82);fill-rule:nonzero;"/>
                                <path d="M1318,444L1318,436L1318,432L1298,432L1294,436L1294,448L1298,444L1318,444Z" style="fill:rgb(171,182,182);fill-rule:nonzero;"/>
                            </g>
                        </g>
                    </g>
                    <g transform="matrix(1,0,0,1,-18.0497,6.4423)">
                        <clipPath id="_clip5">
                            <rect x="114.546" y="2124.61" width="103.06" height="103.472"/>
                        </clipPath>
                        <g clip-path="url(#_clip5)">
                            <g transform="matrix(0.288525,-0.069378,0.160808,0.668758,-257.93,734.443)">
                                <rect x="118.419" y="2178.09" width="8.784" height="16.625" style="fill:rgb(180,96,65);"/>
                            </g>
                            <g transform="matrix(0.284538,-0.0842497,0.195278,0.659517,-337.354,757.746)">
                                <rect x="118.419" y="2178.09" width="8.784" height="16.625" style="fill:rgb(180,96,65);"/>
                            </g>
                            <g transform="matrix(0.280543,-0.0967231,0.22419,0.650258,-404.777,781.074)">
                                <rect x="118.419" y="2178.09" width="8.784" height="16.625" style="fill:rgb(180,96,65);"/>
                            </g>
                            <g transform="matrix(0.279431,-0.0998922,0.231535,0.647679,-424.858,788.931)">
                                <rect x="118.419" y="2178.09" width="8.784" height="16.625" style="fill:rgb(180,96,65);"/>
                            </g>
                        </g>
                    </g>
                </g>
            </g>
        </g>
    </g>
</svg>
