<?xml version="1.0" encoding="UTF-8" standalone="no"?>
<!DOCTYPE svg PUBLIC "-//W3C//DTD SVG 1.1//EN" "http://www.w3.org/Graphics/SVG/1.1/DTD/svg11.dtd">
<svg width="100%" height="100%" viewBox="0 0 96 81" version="1.1" xmlns="http://www.w3.org/2000/svg" xmlns:xlink="http://www.w3.org/1999/xlink" xml:space="preserve" xmlns:serif="http://www.serif.com/" style="fill-rule:evenodd;clip-rule:evenodd;stroke-linecap:round;stroke-linejoin:round;stroke-miterlimit:1.5;">
    <g transform="matrix(1,0,0,1,-813.456,-1422.73)">
        <g transform="matrix(1.04535,0,0,1,-2620.08,317.713)">
            <g id="Farm-Employees-Icon" serif:id="Farm Employees Icon" transform="matrix(0.962538,0,0,1,144.172,57.0346)">
                <g transform="matrix(1,0,0,0.956924,-2.68063,45.787)">
                    <rect x="3266.25" y="1048.31" width="92.931" height="82.363" style="fill:rgb(108,147,70);stroke:rgb(236,237,234);stroke-width:1.91px;"/>
                </g>
                <g transform="matrix(1.16428,0,0,1,265.885,400.223)">
                    <path d="M2627.79,721.924L2602.37,721.993C2600.46,717.117 2600.94,711.244 2600.94,705.614C2600.94,690.977 2601.24,678.891 2610.35,675.051C2610.21,674.934 2610.07,674.811 2609.94,674.684C2605.65,670.635 2605.04,663.362 2608.58,658.452C2612.12,653.543 2618.47,652.846 2622.75,656.895C2627.04,660.945 2627.65,668.218 2624.11,673.127C2623.58,673.864 2622.99,674.507 2622.34,675.052C2622.5,675.119 2622.65,675.228 2622.81,675.279C2630.28,677.56 2631.33,695.471 2632.31,706.081C2633.05,714.066 2631.94,721.993 2631.94,721.993L2627.79,721.924Z" style="fill:rgb(236,237,234);"/>
                </g>
                <g transform="matrix(0.478304,0,0,0.478304,1702.63,568.5)">
                    <text x="3272.04px" y="1060.2px" style="font-family:'AUdimat-Bold', 'AUdimat';font-weight:700;font-size:93.333px;fill:rgb(252,253,251);stroke:rgb(48,42,50);stroke-width:4.78px;stroke-linecap:butt;stroke-miterlimit:1.41421;">+</text>
                </g>
                <g transform="matrix(0.18078,0,0,0.485913,2769.11,538.292)">
                    <rect x="2733.84" y="1048.94" width="522.277" height="26.745" style="fill:white;fill-opacity:0.25;"/>
                </g>
            </g>
        </g>
    </g>
</svg>
