<?xml version="1.0" encoding="UTF-8" standalone="no"?>
<!DOCTYPE svg PUBLIC "-//W3C//DTD SVG 1.1//EN" "http://www.w3.org/Graphics/SVG/1.1/DTD/svg11.dtd">
<svg width="100%" height="100%" viewBox="0 0 93 70" version="1.1" xmlns="http://www.w3.org/2000/svg" xmlns:xlink="http://www.w3.org/1999/xlink" xml:space="preserve" xmlns:serif="http://www.serif.com/" style="fill-rule:evenodd;clip-rule:evenodd;stroke-linecap:round;stroke-linejoin:round;stroke-miterlimit:1.5;">
    <g transform="matrix(1.81277,0,0,1.81277,-4607.6,-1171.85)">
        <g id="_-Group-" serif:id="(Group)" transform="matrix(-1.04036,-0.0800967,0.0800967,-1.04036,5341.61,1591.36)">
            <g transform="matrix(0.335195,0.0116718,-0.0116718,0.335195,1693.56,409.882)">
                <rect x="3022.8" y="660.986" width="2.98" height="51.734" style="fill:rgb(158,100,92);"/>
            </g>
            <g transform="matrix(0.335195,0.0116718,0.0136238,-0.391255,1673.9,929.323)">
                <path d="M3037.47,719.223C3038.33,717.401 3038.78,715.334 3038.78,713.23C3038.78,706.614 3034.39,701.243 3028.97,701.243C3023.56,701.243 3019.17,706.614 3019.17,713.23C3019.17,715.334 3019.62,717.401 3020.48,719.223L3037.47,719.223Z" style="fill:rgb(181,181,181);"/>
            </g>
        </g>
        <g transform="matrix(0.551643,0,0,0.551643,1122.63,285.524)">
            <path d="M2627.79,721.924L2602.37,721.993C2600.46,717.117 2600.94,711.244 2600.94,705.614C2600.94,690.977 2601.24,678.891 2610.35,675.051C2610.21,674.934 2610.07,674.811 2609.94,674.684C2605.65,670.635 2605.04,663.362 2608.58,658.452C2612.12,653.543 2618.47,652.846 2622.75,656.895C2627.04,660.945 2627.65,668.218 2624.11,673.127C2623.58,673.864 2622.99,674.507 2622.34,675.052C2627.11,677.064 2629.61,686.786 2632.43,692.576C2633.58,691.59 2636.41,685.43 2637.71,684.87C2637.6,684.777 2637.5,684.681 2637.39,684.58C2634.09,681.379 2633.62,675.629 2636.34,671.749C2639.07,667.868 2643.97,667.316 2647.28,670.517C2650.59,673.719 2651.05,679.468 2648.33,683.349C2647.92,683.932 2647.46,684.44 2646.96,684.871C2653.99,687.907 2655.33,697.561 2655.33,709.131C2655.33,713.581 2654.68,717.75 2655.2,721.989L2627.79,721.924L2627.79,721.924Z" style="fill:white;"/>
        </g>
        <g transform="matrix(-1.00028,0.296996,-0.296996,-1.00028,5457.3,545.979)">
            <g transform="matrix(0.335195,0.0116718,-0.0116718,0.335195,1693.56,409.882)">
                <rect x="3022.8" y="660.986" width="2.98" height="51.734" style="fill:none;stroke:rgb(158,100,92);stroke-width:3.28px;"/>
            </g>
            <g transform="matrix(-0.0392164,-0.499922,0.527059,-0.0413452,2452.99,2041.81)">
                <path d="M2664.47,645.182C2660.69,645.182 2657.63,654.439 2657.63,665.842C2657.63,677.244 2660.69,686.502 2664.47,686.502C2662.58,683.058 2661.05,674.986 2661.05,665.842C2661.05,656.697 2662.58,648.625 2664.47,645.182Z" style="fill:rgb(181,181,181);stroke:rgb(181,181,181);stroke-width:0.86px;"/>
            </g>
        </g>
    </g>
</svg>
