<?xml version="1.0" encoding="UTF-8" standalone="no"?>
<!DOCTYPE svg PUBLIC "-//W3C//DTD SVG 1.1//EN" "http://www.w3.org/Graphics/SVG/1.1/DTD/svg11.dtd">
<svg width="100%" height="100%" viewBox="0 0 98 99" version="1.1" xmlns="http://www.w3.org/2000/svg" xmlns:xlink="http://www.w3.org/1999/xlink" xml:space="preserve" xmlns:serif="http://www.serif.com/" style="fill-rule:evenodd;clip-rule:evenodd;stroke-linejoin:round;stroke-miterlimit:1.41421;">
    <g transform="matrix(1,0,0,1,-889.012,-636.805)">
        <g transform="matrix(1.87503,0,0,1.87503,28.3715,192.422)">
            <path d="M478.05,240.4L478.35,238.4L480.1,238.4L479.9,240.4L478.05,240.4M478.55,254.45L478.6,254.05L486.25,237C488.217,237.333 490.117,237.817 491.95,238.45L493,238.85L493,240.85L491.95,240.45C490.117,239.817 488.217,239.333 486.25,239L478.3,256.75L478.45,255.4L478.55,254.7L478.55,254.45M493,241.9L497.4,240.9C500.467,242.633 503.233,244.867 505.7,247.6L505.1,248.95C502.8,246.517 500.233,244.5 497.4,242.9L493,243.9L493,241.9M504.35,250.7L507.55,249.8L508.75,251.4L504.25,252.9L504.35,250.7M506.35,253.75L510.3,253.75L511.25,255.45L510.4,255.9L510.3,255.75L506.35,255.75L506.35,253.75M459.45,276.2L459,274.45L470.45,267.25L472.55,269.25L464.5,273.5L459.45,276.2" style="fill:rgb(247,226,150);fill-rule:nonzero;"/>
            <path d="M459.45,276.2L464.5,273.5L465.3,274.6L474.4,271.05L475.1,271.7L472.3,282.3L473.55,282.3L476.8,273.35L480.4,276.8L481.85,287.4L480.1,287.4L478.4,279.25L475.75,289.75C470.383,288.85 466.25,286.733 463.35,283.4C461.617,281.433 460.317,279.033 459.45,276.2M479.9,240.4L478.55,254.45L478.55,254.7L478.45,255.4L478.3,256.75L486.25,239C488.217,239.333 490.117,239.817 491.95,240.45L493,240.85L493,243.9L497.4,242.9C500.233,244.5 502.8,246.517 505.1,248.95L504.25,250.9L504.35,250.7L504.25,252.9L508.75,251.4L508.55,251.7L506.35,253.75L506.35,255.75L510.3,255.75L510.4,255.9L484.2,269.6L481.55,267.8L493.7,258.2L493.1,257.1L479.75,266.55L477.75,265.25L488.15,246L487.2,245.4L476.35,264.25L474.55,263.05L478.05,240.4L479.9,240.4" style="fill:rgb(237,212,124);fill-rule:nonzero;"/>
            <path d="M484.2,269.6L485.4,270.4L483.4,272.95L472.3,264.3L472.3,263.4L473.35,262.25L476.35,264.25L477.75,265.25L479.75,266.55L481.55,267.8L484.2,269.6M482.2,274.45L480.4,276.8L476.8,273.35L475.1,271.7L474.4,271.05L472.55,269.25L470.45,267.25L469.55,266.35L470.9,264.9L472.3,265.2L482.2,274.45" style="fill:rgb(180,123,65);fill-rule:nonzero;"/>
            <path d="M482.2,274.45L472.3,265.2L472.3,264.3L483.4,272.95L481.65,272.6L482.2,274.45" style="fill:rgb(161,107,53);fill-rule:nonzero;"/>
            <path d="M475.1,271.7L476.8,273.35L473.55,282.3L472.3,282.3L475.1,271.7M472.55,269.25L474.4,271.05L465.3,274.6L464.5,273.5L472.55,269.25M477.75,265.25L476.35,264.25L487.2,245.4L488.15,246L477.75,265.25M481.55,267.8L479.75,266.55L493.1,257.1L493.7,258.2L481.55,267.8" style="fill:rgb(224,200,115);fill-rule:nonzero;"/>
        </g>
    </g>
</svg>
