<?xml version="1.0" encoding="UTF-8" standalone="no"?>
<!DOCTYPE svg PUBLIC "-//W3C//DTD SVG 1.1//EN" "http://www.w3.org/Graphics/SVG/1.1/DTD/svg11.dtd">
<svg width="100%" height="100%" viewBox="0 0 74 65" version="1.1" xmlns="http://www.w3.org/2000/svg" xmlns:xlink="http://www.w3.org/1999/xlink" xml:space="preserve" xmlns:serif="http://www.serif.com/" style="fill-rule:evenodd;clip-rule:evenodd;stroke-linecap:round;stroke-linejoin:round;stroke-miterlimit:1.5;">
    <g transform="matrix(1,0,0,1,-546.151,-666.802)">
        <g transform="matrix(1,0,0,1,-2455.94,0.493771)">
            <g>
                <g transform="matrix(1.85607,0.364407,-0.364407,1.85607,-1738.69,-1540.56)">
                    <g transform="matrix(0.335195,0.0116718,-0.0116718,0.335195,1693.56,409.882)">
                        <rect x="3022.8" y="660.986" width="2.98" height="51.734" style="fill:none;stroke:rgb(158,100,92);stroke-width:3.28px;"/>
                    </g>
                    <g transform="matrix(-0.0392164,-0.499922,0.527059,-0.0413452,2452.99,2041.81)">
                        <path d="M2664.47,645.182C2660.69,645.182 2657.63,654.439 2657.63,665.842C2657.63,677.244 2660.69,686.502 2664.47,686.502C2662.58,683.058 2661.05,674.986 2661.05,665.842C2661.05,656.697 2662.58,648.625 2664.47,645.182Z" style="fill:rgb(181,181,181);stroke:rgb(181,181,181);stroke-width:0.86px;"/>
                    </g>
                </g>
                <g transform="matrix(1,0,0,1,2455.94,-0.493771)">
                    <ellipse cx="595.834" cy="676.53" rx="8.208" ry="9.729" style="fill:white;"/>
                </g>
                <g transform="matrix(1.00786,0,0,1.00384,2452.72,-6.60793)">
                    <path d="M603.418,724.067C605.565,724.067 607.434,722.591 607.938,720.495C608.781,716.981 608.451,712.8 608.451,708.679C608.451,702.106 605.793,698.331 603.88,694.043C602.277,690.449 599.822,687.753 596.376,687.753C592.275,687.753 588.606,688.64 587.129,693.332C585.858,697.368 584.669,703.504 584.669,709.096C584.669,711.983 584.411,714.792 584.515,717.38C584.704,721.119 587.778,724.053 591.507,724.053C595.285,724.067 600.279,724.067 603.418,724.067Z" style="fill:white;"/>
                </g>
                <g transform="matrix(1,0,0,1,2454.29,-1.82351)">
                    <path d="M594.412,718.144C595.782,718.667 587.504,717.849 581.244,714.278C587.536,723.263 595.731,721.661 599.614,724.89" style="fill:none;stroke:white;stroke-width:6.25px;"/>
                </g>
                <g transform="matrix(-1.01986,0,0,1.44471,3665.43,-319.471)">
                    <path d="M594.412,718.144C595.782,718.667 587.504,717.849 581.244,714.278C587.536,723.263 595.731,721.661 599.614,724.89" style="fill:none;stroke:white;stroke-width:5px;"/>
                </g>
            </g>
        </g>
    </g>
</svg>
