<?xml version="1.0" encoding="UTF-8" standalone="no"?>
<!DOCTYPE svg PUBLIC "-//W3C//DTD SVG 1.1//EN" "http://www.w3.org/Graphics/SVG/1.1/DTD/svg11.dtd">
<svg width="100%" height="100%" viewBox="0 0 94 47" version="1.1" xmlns="http://www.w3.org/2000/svg" xmlns:xlink="http://www.w3.org/1999/xlink" xml:space="preserve" xmlns:serif="http://www.serif.com/" style="fill-rule:evenodd;clip-rule:evenodd;stroke-linecap:round;stroke-linejoin:round;stroke-miterlimit:1.5;">
    <g transform="matrix(1,0,0,1,-546.987,-676.273)">
        <g transform="matrix(1,0,0,1,-2455.94,0.493771)">
            <g transform="matrix(1.89151,0,0,1.89151,-2075.2,-575.703)">
                <g>
                    <g transform="matrix(0.982225,0.187709,-0.187709,0.982225,165.825,-499.879)">
                        <g transform="matrix(0.335195,0.0116718,-0.0116718,0.335195,1693.56,409.882)">
                            <rect x="3022.8" y="660.986" width="2.98" height="51.734" style="fill:rgb(158,100,92);"/>
                        </g>
                        <g transform="matrix(0.335195,0.0116718,0.0136238,-0.391255,1673.9,929.323)">
                            <path d="M3037.47,719.223C3038.33,717.401 3038.78,715.334 3038.78,713.23C3038.78,706.614 3034.39,701.243 3028.97,701.243C3023.56,701.243 3019.17,706.614 3019.17,713.23C3019.17,715.334 3019.62,717.401 3020.48,719.223L3037.47,719.223Z" style="fill:rgb(181,181,181);"/>
                        </g>
                    </g>
                    <g transform="matrix(0.891045,0,0,0.891045,274.21,71.6264)">
                        <g transform="matrix(-0.253327,0.31427,-0.342846,-0.276362,2718.56,682.66)">
                            <circle cx="0" cy="0" r="9.014" style="fill:white;"/>
                        </g>
                        <g transform="matrix(0.311021,0,0,0.400879,1766.65,397.228)">
                            <path d="M3125.16,725.605C3129.43,725.606 3133.18,723.382 3134.29,720.179C3134.64,719.169 3134.82,718.141 3134.82,717.107C3134.82,707.726 3121.38,698.646 3104.86,705.585C3099.12,707.997 3094.64,708.749 3088.4,710.062C3080.93,711.633 3069.81,711.946 3069.81,717.107C3069.81,718.728 3070.25,720.335 3071.12,721.878C3072.29,724.04 3075.02,725.445 3078.04,725.445C3087.89,725.605 3113.91,725.605 3125.16,725.605Z" style="fill:white;"/>
                        </g>
                        <g transform="matrix(0.657831,0,0,0.435001,686.413,372.188)">
                            <path d="M3120.4,722.636C3126.54,714.105 3130.3,707.172 3130.3,707.172L3140.76,722.687" style="fill:none;stroke:white;stroke-width:5.76px;"/>
                        </g>
                        <g transform="matrix(0.657831,0,0,0.435001,686.413,372.188)">
                            <path d="M3120.4,722.636C3127.69,720.17 3131.88,718.754 3131.88,718.754L3151.07,722.796" style="fill:none;stroke:white;stroke-width:5.76px;"/>
                        </g>
                        <g transform="matrix(0.429945,0,0,0.435015,1371.24,371.271)">
                            <path d="M3125.7,723.753C3127.36,728.359 3135.87,729.665 3135.87,729.665L3145.79,723.829" style="fill:none;stroke:white;stroke-width:5.14px;"/>
                        </g>
                    </g>
                </g>
            </g>
        </g>
    </g>
</svg>
